<svg width="802" height="298" viewBox="0 0 802 298" fill="none" xmlns="http://www.w3.org/2000/svg">
<path d="M3.04439 297.346C511.157 298 3.04562 298 3.04562 298H802V273.664H646.404L646.291 273.664C629.951 273.771 616.622 264.36 616.52 252.646C616.419 240.931 629.583 231.348 645.923 231.242L802 230.226V210.705V118.949V107.536V89.006V74.4822V71.4773V68.8353V0.863135H779.374C779.374 0.863135 588.208 -1.18516 574.327 1.02898C567.315 2.14744 565.159 11.3994 562.689 21.9966C559.352 36.3127 555.443 53.084 538.218 55.5742C520.257 58.1707 474.093 56.9796 436.619 56.0127C411.549 55.3658 390.368 54.8193 384.12 55.5742C372.012 57.0373 261.997 56.2272 202.995 55.7928L202.993 55.7928C186.043 55.668 173.304 55.5742 168.305 55.5742C158.463 55.5742 156.57 44.6561 154.476 32.5847C151.805 17.184 148.808 -0.0939555 128.565 1.02898C118.01 1.61447 86.7 0.662295 86.7 0.662295H0V115.121V231.242H202.993H427.402L511.157 298L3.04439 297.346Z" fill="#6ED77F"/>
</svg>
